<?xml version="1.0" encoding="UTF-8" standalone="no" ?>
<!DOCTYPE svg PUBLIC "-//W3C//DTD SVG 1.1//EN" "http://www.w3.org/Graphics/SVG/1.1/DTD/svg11.dtd">
<svg xmlns="http://www.w3.org/2000/svg" xmlns:xlink="http://www.w3.org/1999/xlink" version="1.1" width="1000" height="1000" viewBox="0 0 1000 1000" xml:space="preserve">
<desc>Created with Fabric.js 5.3.0</desc>
<defs>
</defs>
<g transform="matrix(1.4714868954408542 0 0 1.4714868954408542 500.3186069936667 500.33669642574654)" id="background-1ae4640e-3854-4c4e-91fe-6e68ae503871"  >
<rect style="stroke: none; stroke-width: 0; stroke-dasharray: none; stroke-linecap: butt; stroke-dashoffset: 0; stroke-linejoin: miter; stroke-miterlimit: 4; fill: rgb(255,255,255); fill-rule: nonzero; opacity: 1;"  paint-order="stroke"  x="-340" y="-340" rx="0" ry="0" width="680" height="680" />
</g>
<g transform="matrix(1.5391311280315831 0 0 1.5391311280315831 209.49382064829462 179.89185588288933)" id="shape-aad68e31-1718-4010-ace5-7bf77eeff658"  >
<g style="opacity: 0.8;"  paint-order="stroke"   >
		<g transform="matrix(1 0 0 1 0 0)" id="shape-1"  >
<path style="stroke: none; stroke-width: 1; stroke-dasharray: none; stroke-linecap: butt; stroke-dashoffset: 0; stroke-linejoin: miter; stroke-miterlimit: 4; fill: rgb(255,255,255); fill-rule: nonzero; opacity: 1;"  paint-order="stroke"  transform=" translate(-150.0308346764318, -149.99198339464073)" d="M 294.19 115.93 C 296.91 112.56 299.55 108.12 297.81 104.16000000000001 C 295.18 98.18 286.34 99.77000000000001 280.36 102.41000000000001 C 266.6 108.48000000000002 252.99 114.89000000000001 239.54000000000002 121.60000000000001 C 254.00000000000003 112.02000000000001 267.3 100.69000000000001 279.08000000000004 87.95000000000002 C 283.00000000000006 83.71000000000002 286.89000000000004 79.06000000000002 288.08000000000004 73.41000000000003 C 289.27000000000004 67.76000000000002 286.80000000000007 60.93000000000002 281.32000000000005 59.11000000000003 C 273.61000000000007 56.550000000000026 266.84000000000003 64.53000000000003 262.24000000000007 71.22000000000003 C 245.66000000000008 95.32000000000002 223.77000000000007 115.75000000000003 198.59000000000006 130.62000000000003 C 213.20000000000005 121.17000000000003 227.98000000000008 111.40000000000003 239.00000000000006 97.93000000000004 C 245.90000000000006 89.49000000000004 251.06000000000006 79.47000000000003 253.07000000000005 68.71000000000004 C 254.11000000000004 63.150000000000034 257.56000000000006 42.150000000000034 248.08000000000004 41.76000000000003 C 245.12000000000003 41.640000000000036 242.54000000000005 43.70000000000003 240.56000000000003 45.890000000000036 C 234.65000000000003 52.460000000000036 231.53000000000003 60.99000000000004 227.70000000000005 68.96000000000004 C 217.15000000000003 90.87000000000003 200.17000000000004 109.65000000000003 179.43000000000004 122.35000000000004 C 191.88000000000002 106.76000000000003 204.36000000000004 91.02000000000004 213.66000000000003 73.36000000000004 C 222.96000000000004 55.71000000000004 228.98000000000002 35.84000000000004 227.58 15.94000000000004 C 227.10000000000002 9.10000000000004 224.20000000000002 0.79000000000004 217.39000000000001 0.05000000000003979 C 210.64000000000001 -0.6699999999999602 206.06 6.66000000000004 203.86 13.08000000000004 C 198.66000000000003 28.27000000000004 196.89000000000001 44.40000000000004 193.18 60.02000000000004 C 189.47 75.64000000000004 183.41 91.41000000000004 171.57 102.26000000000005 C 178.95 79.11000000000004 183.51999999999998 55.060000000000045 185.15 30.82000000000005 C 185.54 24.99000000000005 185.66 18.74000000000005 182.56 13.790000000000049 C 179.46 8.84000000000005 171.9 6.3100000000000485 167.63 10.300000000000049 C 164.78 12.970000000000049 164.44 17.300000000000047 164.29 21.21000000000005 C 163.14 51.050000000000054 161.98999999999998 80.89000000000004 160.84 110.73000000000005 C 162.05 76.28000000000004 160.12 40.530000000000044 143.49 10.470000000000041 C 140.66 5.360000000000041 136.01000000000002 -0.19999999999995843 130.27 0.8400000000000407 C 126.27000000000001 1.5700000000000407 123.48 5.52000000000004 122.85000000000001 9.53000000000004 C 122.22000000000001 13.54000000000004 123.30000000000001 17.610000000000042 124.51 21.49000000000004 C 129.71 38.280000000000044 137.31 54.310000000000045 141.58 71.37000000000005 C 145 85.01000000000005 146.09 99.83000000000004 142.14000000000001 113.14000000000004 C 142.86 114.24000000000004 143.29000000000002 115.48000000000005 143.29000000000002 116.73000000000005 C 143.29000000000002 118.09000000000005 142.84000000000003 119.41000000000005 143.03000000000003 120.78000000000004 C 143.35000000000002 123.13000000000004 145.40000000000003 125.01000000000005 147.12000000000003 126.85000000000005 C 152.42000000000004 132.50000000000006 155.61000000000004 139.80000000000004 156.05000000000004 147.02000000000004 C 156.56000000000003 146.40000000000003 157.26000000000005 145.85000000000005 158.06000000000003 145.39000000000004 C 158.06000000000003 143.98000000000005 158.06000000000003 142.76000000000005 158.01000000000002 142.42000000000004 C 157.60000000000002 139.48000000000005 156.86 136.55000000000004 155.79000000000002 133.71000000000004 C 154.89000000000001 131.30000000000004 153.94000000000003 128.97000000000003 152.13000000000002 127.12000000000003 C 150.16000000000003 125.12000000000003 147.98000000000002 123.54000000000003 148.64000000000001 120.42000000000003 C 149.25000000000003 117.57000000000004 152.55 115.93000000000004 155.34 117.09000000000003 C 158.13 118.25000000000003 159.8 121.96000000000004 158.73 124.61000000000003 C 158.32999999999998 125.58000000000003 157.64 126.40000000000003 157.38 127.43000000000002 C 156.94 129.20000000000002 157.85999999999999 131.14000000000001 158.57 132.95000000000002 C 160.01999999999998 136.66000000000003 160.59 140.63000000000002 160.29999999999998 144.43 C 160.99999999999997 144.22 161.70999999999998 144.06 162.42 143.98000000000002 C 162.89999999999998 142.71 163.29999999999998 141.64000000000001 163.38 141.3 C 164.14 138.07000000000002 164.59 134.68 164.7 131.23000000000002 C 164.79 128.3 164.82 125.42000000000002 163.85 122.60000000000002 C 162.79 119.54000000000002 161.37 116.81000000000002 163.21 113.94000000000003 C 164.88 111.32000000000002 168.6 111.32000000000002 170.74 113.94000000000003 C 172.89000000000001 116.55000000000003 173 121.21000000000002 170.97 123.39000000000003 C 170.22 124.19000000000003 169.26 124.67000000000003 168.62 125.60000000000002 C 167.52 127.20000000000002 167.63 129.65000000000003 167.58 131.87000000000003 C 167.49 136.22000000000003 166.55 140.39000000000004 164.94000000000003 144.04000000000002 C 165.82000000000002 144.20000000000002 166.61 144.51000000000002 167.20000000000002 145.02 C 168.84 146.44 168.06000000000003 148.51000000000002 168.12 153.44 C 168.20000000000002 153.43 168.27 153.42 168.35 153.41 C 169.23999999999998 151.85 171.54 148.4 171.82 147.79999999999998 C 172.97 145.35 173.9 142.73 174.57 139.99999999999997 C 175.14 137.67999999999998 175.65 135.38999999999996 175.35 132.97999999999996 C 175.01999999999998 130.35999999999996 174.35 127.94999999999996 176.29999999999998 125.96999999999996 C 178.07 124.16999999999996 181.02999999999997 124.78999999999995 182.30999999999997 127.23999999999995 C 183.57999999999998 129.68999999999994 182.89 133.41999999999996 180.89999999999998 134.80999999999995 C 180.17 135.31999999999994 179.31999999999996 135.53999999999994 178.64999999999998 136.17999999999995 C 177.49999999999997 137.26999999999995 177.17999999999998 139.23999999999995 176.76999999999998 140.99999999999994 C 175.64 145.86999999999995 173.23 150.17999999999995 170.05999999999997 153.18999999999994 C 171.34999999999997 153.01999999999995 172.48999999999998 152.86999999999995 172.80999999999997 152.78999999999994 C 175.42 152.09999999999994 178.02999999999997 151.11999999999995 180.54999999999998 149.86999999999995 C 182.68999999999997 148.80999999999995 184.76999999999998 147.72999999999996 186.42 145.94999999999996 C 188.20999999999998 144.01999999999995 189.61999999999998 141.94999999999996 192.39 142.15999999999997 C 194.91 142.35999999999996 196.33999999999997 145.01999999999998 195.29 147.56999999999996 C 194.23999999999998 150.11999999999998 190.92999999999998 151.98999999999995 188.59 151.35999999999996 C 187.73 151.12999999999997 187.01 150.61999999999995 186.1 150.51999999999995 C 184.53 150.33999999999995 182.81 151.35999999999996 181.2 152.17999999999995 C 176.95999999999998 154.33999999999995 172.35999999999999 155.27999999999994 168.17999999999998 154.94999999999996 C 168.32999999999998 158.11999999999995 168.79999999999998 160.80999999999997 169.31999999999996 163.07999999999996 C 169.85999999999996 163.14999999999995 170.27999999999997 163.18999999999997 170.44999999999996 163.18999999999997 C 173.27999999999997 163.17999999999998 176.11999999999995 162.83999999999997 178.89999999999995 162.17999999999998 C 181.25999999999996 161.61999999999998 183.55999999999995 161.01999999999998 185.46999999999994 159.51 C 187.53999999999994 157.87 189.22999999999993 155.97 192.13999999999993 157.01999999999998 C 194.78999999999994 157.96999999999997 196.04999999999993 161.36999999999998 194.69999999999993 163.90999999999997 C 193.34999999999994 166.44999999999996 189.68999999999994 167.57999999999996 187.26999999999992 166.19999999999996 C 186.37999999999994 165.68999999999997 185.66999999999993 164.91999999999996 184.70999999999992 164.52999999999997 C 183.06999999999994 163.86999999999998 181.14999999999992 164.50999999999996 179.36999999999992 164.95999999999998 C 176.24999999999991 165.73999999999998 173.0099999999999 165.86999999999998 169.89999999999992 165.40999999999997 C 170.13999999999993 166.30999999999997 170.36999999999992 167.12999999999997 170.5699999999999 167.86999999999998 C 171.8199999999999 169.59999999999997 173.1599999999999 171.20999999999998 174.67999999999992 172.56999999999996 C 176.33999999999992 174.04999999999995 177.98999999999992 175.42999999999998 180.10999999999993 175.66999999999996 C 182.40999999999994 175.92999999999995 184.68999999999994 175.62999999999997 185.45999999999992 179.01999999999995 C 186.14999999999992 182.09999999999997 184.31999999999994 186.22999999999996 181.73999999999992 187.38999999999996 C 179.1599999999999 188.54999999999995 176.39999999999992 186.48999999999995 176.13999999999993 183.21999999999997 C 176.04999999999993 182.01999999999998 176.23999999999992 180.71999999999997 176.01999999999992 179.56999999999996 C 175.63999999999993 177.59999999999997 174.1599999999999 176.56999999999996 172.88999999999993 175.47999999999996 C 172.00999999999993 174.71999999999997 171.20999999999992 173.83999999999997 170.46999999999994 172.87999999999997 C 169.81999999999994 173.41999999999996 169.13999999999993 173.30999999999997 168.11999999999995 173.01999999999995 C 168.13999999999996 174.49999999999994 168.15999999999994 175.75999999999996 168.21999999999994 176.10999999999996 C 168.72999999999993 179.26999999999995 169.62999999999994 182.27999999999994 170.89999999999995 185.05999999999995 C 171.96999999999994 187.41999999999996 173.08999999999995 189.67999999999995 175.20999999999995 191.05999999999995 C 177.50999999999996 192.54999999999995 180.03999999999996 193.46999999999994 179.31999999999996 197.25999999999993 C 178.65999999999997 200.69999999999993 174.87999999999997 203.82999999999993 171.64999999999998 203.60999999999993 C 168.42 203.38999999999993 166.43999999999997 199.85999999999993 167.64 196.44999999999993 C 168.07999999999998 195.19999999999993 168.86999999999998 194.00999999999993 169.14999999999998 192.73999999999992 C 169.64 190.56999999999994 168.53999999999996 188.74999999999991 167.7 186.97999999999993 C 165.67999999999998 182.73999999999992 165.04999999999998 177.61999999999995 165.79999999999998 172.40999999999994 C 165.11999999999998 172.25999999999993 164.36999999999998 172.12999999999994 163.46999999999997 172.04999999999993 C 161.95999999999998 171.91999999999993 160.64999999999998 171.99999999999991 159.47999999999996 172.1899999999999 C 158.03999999999996 174.04999999999993 156.34999999999997 176.1599999999999 156.07999999999996 176.6399999999999 C 154.49999999999994 179.4199999999999 153.31999999999996 182.3299999999999 152.55999999999995 185.2899999999999 C 151.91999999999996 187.7999999999999 151.36999999999995 190.2699999999999 152.15999999999994 192.6599999999999 C 153.00999999999993 195.2599999999999 154.40999999999994 197.5699999999999 151.47999999999993 200.0699999999999 C 148.80999999999995 202.33999999999992 143.89999999999992 202.4099999999999 141.51999999999992 200.2099999999999 C 139.13999999999993 198.0099999999999 139.80999999999992 194.0199999999999 142.88999999999993 192.1199999999999 C 144.01999999999992 191.4199999999999 145.37999999999994 190.9899999999999 146.38999999999993 190.1799999999999 C 148.12999999999994 188.7899999999999 148.41999999999993 186.68999999999988 148.86999999999992 184.7899999999999 C 149.82999999999993 180.7399999999999 152.07999999999993 176.83999999999992 155.2599999999999 173.49999999999991 C 153.0199999999999 174.4499999999999 151.0399999999999 175.49999999999991 148.4399999999999 175.55999999999992 C 147.6699999999999 176.41999999999993 146.9099999999999 177.29999999999993 146.20999999999992 178.2299999999999 C 144.76999999999992 180.1299999999999 143.38999999999993 182.02999999999992 142.70999999999992 184.3599999999999 C 141.9699999999999 186.8899999999999 141.6299999999999 189.3699999999999 139.05999999999992 190.4199999999999 C 136.7199999999999 191.3699999999999 134.24999999999991 189.6299999999999 134.04999999999993 186.8699999999999 C 133.84999999999994 184.1199999999999 135.9699999999999 180.96999999999989 138.34999999999994 180.4799999999999 C 139.21999999999994 180.2999999999999 140.08999999999995 180.4299999999999 140.95999999999995 180.1199999999999 C 142.43999999999994 179.5799999999999 143.52999999999994 177.8899999999999 144.59999999999994 176.43999999999988 C 144.91999999999993 176.00999999999988 145.24999999999994 175.60999999999987 145.58999999999995 175.2099999999999 C 144.74999999999994 175.0099999999999 143.90999999999994 174.7499999999999 143.10999999999996 174.3999999999999 C 141.50999999999996 176.03999999999988 139.97999999999996 177.4899999999999 137.34999999999997 176.9299999999999 C 136.78999999999996 176.8099999999999 136.28999999999996 176.5599999999999 135.82999999999996 176.2499999999999 C 135.34999999999997 176.97999999999988 134.83999999999995 177.68999999999988 134.40999999999997 178.44999999999987 C 133.16999999999996 180.63999999999987 132.02999999999997 182.81999999999988 131.89999999999998 185.32999999999987 C 131.76 188.04999999999987 132.12999999999997 190.65999999999988 129.17 192.15999999999988 C 126.47999999999999 193.5199999999999 122.75999999999999 192.12999999999988 121.62999999999998 189.3399999999999 C 121.04999999999998 187.9199999999999 121.21999999999998 186.2999999999999 121.88999999999999 184.9299999999999 C 121.67999999999999 184.9799999999999 121.47999999999999 185.0499999999999 121.23999999999998 185.0799999999999 C 118.24999999999999 185.46999999999989 115.20999999999998 182.9299999999999 115.06999999999998 179.9099999999999 C 114.92999999999998 176.89999999999992 117.72999999999998 174.0799999999999 120.73999999999998 174.1999999999999 C 121.84999999999998 174.2399999999999 122.93999999999998 174.6199999999999 124.03999999999998 174.5099999999999 C 125.92999999999998 174.3299999999999 127.36999999999998 172.80999999999992 128.77999999999997 171.52999999999992 C 131.04999999999998 169.4799999999999 133.70999999999998 167.88999999999993 136.56999999999996 166.80999999999992 C 136.56999999999996 166.80999999999992 136.56999999999996 166.80999999999992 136.56999999999996 166.80999999999992 C 136.68999999999997 165.1599999999999 137.79999999999995 163.5999999999999 139.26999999999995 162.4099999999999 C 137.85999999999996 161.17999999999992 136.63999999999996 160.1299999999999 136.25999999999996 159.8799999999999 C 132.83999999999997 157.6699999999999 129.15999999999997 155.8599999999999 125.31999999999996 154.5099999999999 C 122.05999999999996 153.3599999999999 118.83999999999996 152.3299999999999 115.41999999999996 152.7599999999999 C 111.70999999999997 153.2299999999999 108.26999999999995 154.33999999999992 105.53999999999996 150.6999999999999 C 103.04999999999997 147.3899999999999 104.04999999999997 142.02999999999992 107.55999999999996 139.83999999999992 C 107.87999999999995 139.63999999999993 108.21999999999996 139.4799999999999 108.56999999999996 139.33999999999992 C 90.10999999999996 125.97999999999992 71.64999999999996 112.60999999999991 53.18999999999996 99.24999999999991 C 48.51999999999996 95.86999999999992 42.55999999999996 92.33999999999992 37.37999999999996 94.85999999999991 C 32.17999999999996 97.38999999999992 31.31999999999996 104.94999999999992 34.11999999999996 110.00999999999992 C 36.91999999999996 115.06999999999992 42.16999999999996 118.19999999999992 47.179999999999964 121.09999999999992 C 65.52999999999997 131.69999999999993 83.87999999999997 142.30999999999992 102.21999999999997 152.9099999999999 C 73.50999999999996 144.17999999999992 46.52999999999997 129.7599999999999 23.32999999999997 110.7299999999999 C 20.17999999999997 108.1499999999999 16.96999999999997 105.40999999999991 13.03999999999997 104.34999999999991 C 9.109999999999971 103.2899999999999 4.23999999999997 104.48999999999991 2.439999999999971 108.13999999999992 C 1.319999999999971 110.42999999999992 1.609999999999971 113.15999999999991 2.329999999999971 115.60999999999991 C 5.549999999999971 126.66999999999992 15.979999999999972 133.82999999999993 25.81999999999997 139.82999999999993 C 37.61999999999997 147.02999999999992 49.599999999999966 153.90999999999994 61.589999999999975 160.77999999999992 C 47.34999999999997 156.04999999999993 33.10999999999997 151.30999999999992 18.869999999999976 146.57999999999993 C 17.159999999999975 146.00999999999993 15.369999999999976 145.42999999999992 13.579999999999977 145.65999999999994 C 8.759999999999977 146.26999999999995 6.529999999999977 152.65999999999994 8.399999999999977 157.14999999999995 C 10.269999999999978 161.63999999999996 14.699999999999978 164.44999999999996 18.99999999999998 166.70999999999995 C 21.26999999999998 167.89999999999995 23.559999999999977 169.00999999999996 25.88999999999998 170.05999999999995 C 53.079999999999984 182.27999999999994 83.83999999999997 184.86999999999995 113.72999999999999 187.20999999999995 C 89.94 194.79999999999995 64.82999999999998 201.68999999999994 40.25999999999999 197.16999999999996 C 34.849999999999994 196.16999999999996 29.319999999999993 194.62999999999997 23.929999999999993 195.72999999999996 C 18.539999999999992 196.82999999999996 13.399999999999993 201.74999999999997 14.399999999999993 207.15999999999997 C 15.189999999999994 211.41999999999996 19.289999999999992 214.18999999999997 23.239999999999995 215.97999999999996 C 36.64999999999999 222.06999999999996 52.58 222.36999999999995 66.21 216.80999999999997 C 56.22999999999999 222.14 46.24999999999999 227.45999999999998 36.269999999999996 232.78999999999996 C 34.22 233.87999999999997 32.08 235.05999999999997 30.829999999999995 237.00999999999996 C 28.609999999999996 240.46999999999997 30.069999999999993 245.37999999999997 33.169999999999995 248.05999999999997 C 36.279999999999994 250.74999999999997 40.56999999999999 251.60999999999999 44.669999999999995 251.76999999999998 C 73 252.82 94.13999999999999 225.98999999999998 121 216.92999999999998 C 111.39 235.98999999999998 96.36 252.27999999999997 78.13 263.38 C 73.33 266.31 68.17999999999999 268.98 64.61999999999999 273.33 C 53.31999999999999 287.13 68.16999999999999 290.49 79.35999999999999 288.32 C 82.92999999999998 287.63 92.78999999999999 285.33 107.13999999999999 273.98 C 119.35999999999999 264.31 129.61999999999998 252.13000000000002 137.48999999999998 238.70000000000002 C 135.37999999999997 249.73000000000002 133.26999999999998 260.77000000000004 131.15999999999997 271.8 C 130.90999999999997 273.13 130.66999999999996 274.6 131.34999999999997 275.77000000000004 C 132.06999999999996 277.01000000000005 133.64999999999998 277.53000000000003 135.06999999999996 277.40000000000003 C 141.79999999999995 276.81000000000006 148.26999999999995 269.02000000000004 151.76999999999995 263.91 C 153.57999999999996 261.27000000000004 161.95999999999995 246.83000000000004 159.11999999999995 243.73000000000002 C 171.38999999999996 257.13 159.93999999999994 281.58000000000004 171.59999999999994 295.52000000000004 C 174.02999999999994 298.42 177.80999999999995 300.67 181.48999999999995 299.79 C 186.53999999999996 298.59000000000003 188.56999999999996 292.56 189.23999999999995 287.41 C 191.09999999999997 273.29 189.26999999999995 258.70000000000005 183.98999999999995 245.48000000000002 C 185.43999999999994 247.24 187.62999999999994 250.12 189.78999999999996 253.96 C 193.18999999999997 260 194.48999999999995 269.73 201.28999999999996 272.86 C 205.17999999999995 274.65000000000003 211.01999999999995 275.16 213.14999999999998 270.81 C 216.59999999999997 263.76 209.18999999999997 251.49 206.7 245.1 C 204.92 240.53 201.98999999999998 233 198.29 223.43 C 204.28 230.41 208.47 236.44 211.20999999999998 240.69 C 215.39999999999998 247.21 220.26999999999998 256.25 225.57 261.8 C 228.03 264.37 233.67 266.36 236.73 263.52000000000004 C 239.94 260.53000000000003 236.85999999999999 252.09000000000003 233.25 244.14000000000004 C 228.25 233.12000000000003 219.07 216.07000000000005 201.54 194.21000000000004 C 210.1 202.92000000000004 216.69 210.36000000000004 221.23 215.67000000000004 C 225.61999999999998 220.81000000000003 230.63 225.49000000000004 235.7 229.94000000000005 C 238.51 232.41000000000005 251.82999999999998 247.69000000000005 255.76 241.80000000000007 C 256.32 240.95000000000007 256.45 239.89000000000007 256.49 238.88000000000008 C 257.05 227.33000000000007 250.39000000000001 218.00000000000009 242.46 210.3700000000001 C 237.85 205.94000000000008 233.29000000000002 202.7700000000001 229.51000000000002 200.5300000000001 C 235.73000000000002 201.8900000000001 241.22000000000003 205.38000000000008 246.97000000000003 208.1200000000001 C 252.72000000000003 210.85000000000008 259.3 212.8600000000001 265.39000000000004 211.0200000000001 C 271.48 209.1700000000001 276.24000000000007 202.0900000000001 273.59000000000003 196.3000000000001 C 271.75000000000006 192.2800000000001 267.26000000000005 190.2900000000001 263.11 188.7800000000001 C 254.09 185.50000000000009 244.84 182.8400000000001 235.46 180.82000000000008 C 251.71 183.44000000000008 268.87 180.3400000000001 283.11 172.05000000000007 C 288.03000000000003 169.18000000000006 293.2 164.10000000000008 291.45 158.68000000000006 C 289.57 152.85000000000005 281.71 152.19000000000005 275.59999999999997 152.62000000000006 C 255.78999999999996 154.03000000000006 235.97999999999996 155.44000000000005 216.16999999999996 156.84000000000006 C 246.30999999999995 154.62000000000006 275.27 139.44000000000005 294.23999999999995 115.91000000000005 Z M 109.07 139.14000000000001 C 112.41999999999999 138.10000000000002 116.52999999999999 139.61 118.16 142.77 C 118.86 144.12 119.14 145.68 120.00999999999999 146.93 C 121.50999999999999 149.07 124.28999999999999 149.76000000000002 126.75999999999999 150.59 C 132.6 152.55 137.84 156.19 141.82 160.88 C 142.09 160.76999999999998 142.37 160.66 142.64 160.57999999999998 C 143.48999999999998 160.32999999999998 144.27999999999997 160.26999999999998 145.04 160.27999999999997 C 144.42 159.16999999999996 143.9 158.22999999999996 143.70999999999998 157.97999999999996 C 141.92999999999998 155.59999999999997 139.85999999999999 153.39999999999995 137.55999999999997 151.42999999999995 C 135.60999999999999 149.75999999999996 133.64999999999998 148.16999999999996 131.17 147.42999999999995 C 128.48 146.62999999999994 125.80999999999999 146.30999999999995 124.87999999999998 143.24999999999994 C 124.02999999999999 140.45999999999995 126.13999999999999 137.42999999999995 129.14 137.09999999999994 C 132.14999999999998 136.76999999999992 135.39999999999998 139.20999999999995 135.73999999999998 142.04999999999993 C 135.85999999999999 143.08999999999992 135.64999999999998 144.14999999999992 135.92 145.17999999999992 C 136.39 146.94999999999993 138.13 148.19999999999993 139.63 149.4399999999999 C 142.39 151.73999999999992 144.60999999999999 154.5799999999999 146.19 157.6699999999999 C 146.19 156.4299999999999 146.18 155.3799999999999 146.14 155.0699999999999 C 145.73 152.1299999999999 144.98999999999998 149.1999999999999 143.92 146.3599999999999 C 143.01999999999998 143.9499999999999 142.07 141.6199999999999 140.26 139.7699999999999 C 138.29 137.7699999999999 136.10999999999999 136.18999999999988 136.76999999999998 133.0699999999999 C 137.38 130.2199999999999 140.67999999999998 128.5799999999999 143.46999999999997 129.7399999999999 C 146.25999999999996 130.8999999999999 147.92999999999998 134.6099999999999 146.85999999999996 137.2599999999999 C 146.45999999999995 138.2299999999999 145.76999999999995 139.0499999999999 145.50999999999996 140.0799999999999 C 145.06999999999996 141.8499999999999 145.98999999999995 143.7899999999999 146.69999999999996 145.5999999999999 C 148.60999999999996 150.4799999999999 148.97999999999996 155.80999999999992 147.86999999999995 160.61999999999992 C 149.94999999999996 161.01999999999992 152.06999999999994 161.48999999999992 154.87999999999994 160.4399999999999 C 156.24999999999994 159.92999999999992 157.38999999999993 159.49999999999991 157.95999999999995 158.3899999999999 C 159.51999999999995 155.3199999999999 154.26999999999995 151.8199999999999 155.28999999999996 148.3999999999999 C 154.81999999999996 148.2799999999999 151.58999999999997 139.56999999999988 150.99999999999997 138.5399999999999 C 149.08999999999997 135.1899999999999 146.77999999999997 132.0199999999999 144.12999999999997 129.11999999999992 C 141.87999999999997 126.65999999999993 139.61999999999998 124.29999999999993 136.54999999999995 122.94999999999992 C 133.20999999999995 121.48999999999992 129.81999999999996 120.64999999999992 129.11999999999995 116.55999999999992 C 128.47999999999996 112.83999999999992 131.65999999999994 109.26999999999991 135.58999999999995 109.31999999999992 C 136.37999999999994 109.32999999999993 137.16999999999996 109.48999999999992 137.91999999999996 109.76999999999992 C 136.75999999999996 88.97999999999993 132.17999999999995 68.37999999999992 124.37999999999997 49.06999999999992 C 122.39999999999996 44.16999999999992 119.37999999999997 38.68999999999992 114.13999999999997 37.97999999999992 C 109.26999999999997 37.32999999999992 104.79999999999997 41.50999999999992 103.42999999999998 46.22999999999992 C 102.05999999999997 50.94999999999992 103.02999999999997 55.999999999999915 104.12999999999998 60.78999999999992 C 106.03999999999998 69.17999999999992 108.31999999999998 77.47999999999992 110.93999999999998 85.67999999999992 C 107.39999999999998 76.87999999999992 103.85999999999999 68.07999999999993 100.32999999999998 59.27999999999992 C 97.71999999999998 52.799999999999926 95.05999999999999 46.20999999999992 90.64999999999998 40.799999999999926 C 86.23999999999998 35.379999999999924 79.74999999999997 31.219999999999928 72.75999999999998 31.319999999999926 C 65.77999999999997 31.429999999999925 58.74999999999998 36.81999999999992 58.39999999999998 43.799999999999926 C 58.10999999999998 49.49999999999993 61.92999999999998 54.49999999999993 65.54999999999998 58.909999999999926 C 86.40999999999998 84.35999999999993 107.26999999999998 109.79999999999993 128.13 135.24999999999994 C 110.59 116.05999999999995 93.06 96.85999999999994 75.52 77.66999999999994 C 71.72999999999999 73.51999999999994 67.69 69.20999999999995 62.33 67.49999999999994 C 56.98 65.78999999999995 49.989999999999995 67.81999999999994 48.239999999999995 73.15999999999994 C 46.44 78.64999999999993 50.71999999999999 84.11999999999995 54.73 88.27999999999994 C 71.97 106.14999999999995 90.12 123.12999999999994 109.08 139.15999999999994 Z M 130.68 173.89000000000001 C 128.79000000000002 175.55 126.98 177.22000000000003 126.03 179.55 C 125.67 180.42000000000002 125.37 181.29000000000002 125 182.08 C 125 182.08 125.01 182.08 125.02 182.08 C 126.08 181.75 127.22999999999999 181.75 128.24 181.28 C 129.96 180.48 130.81 178.57 131.72 176.9 C 132.33 175.77 133.06 174.71 133.85 173.69 C 133.64 173.03 133.56 172.32 133.63 171.60999999999999 C 132.60999999999999 172.32999999999998 131.60999999999999 173.07999999999998 130.68 173.89999999999998 Z" stroke-linecap="round" />
</g>
</g>
</g>
<g transform="matrix(-0.10697339782676767 0.5032702683290282 -0.5032702683290282 -0.10697339782676767 895.9888010088605 500.3366964257465)" id="shape-50b63e13-1818-4569-81c7-6f9bd730429e"  >
<g style="opacity: 0.35;"  paint-order="stroke"   >
		<g transform="matrix(1 0 0 1 0 -25.705000000000027)" id="shape-5"  >
<path style="stroke: none; stroke-width: 1; stroke-dasharray: none; stroke-linecap: butt; stroke-dashoffset: 0; stroke-linejoin: miter; stroke-miterlimit: 4; fill: rgb(255,255,255); fill-rule: nonzero; opacity: 0.45;"  paint-order="stroke"  transform=" translate(-56.27211391188672, -124.29899418346837)" d="M 25.11 248.6 Q 25.31 248.6 25.11 248.6 L 24.91 247.98999999999998 C -5.24 154.7 0.42 104.91 0.42 104.91 C 2.04 91.35 5.07 66.25999999999999 21.67 40.349999999999994 C 30.17 27.2 48.59 -1.74 72.87 0.08 C 88.45 1.29 101.4 14.85 107.48 27.599999999999998 C 121.85000000000001 57.55 102.62 94.17999999999999 87.44 123.11999999999999 C 64.37 167.04 41.3 182.20999999999998 28.949999999999996 230.57999999999998 C 26.929999999999996 238.07 25.909999999999997 244.33999999999997 25.099999999999994 248.58999999999997 Z" stroke-linecap="round" />
</g>
		<g transform="matrix(1 0 0 1 -3.0312054982941703 20.627753965072287)" id="shape-5"  >
<path style="stroke: none; stroke-width: 1; stroke-dasharray: none; stroke-linecap: butt; stroke-dashoffset: 0; stroke-linejoin: miter; stroke-miterlimit: 4; fill: rgb(255,255,255); fill-rule: nonzero; opacity: 1;"  paint-order="stroke"  transform=" translate(-53.24090841359255, -170.63174814854068)" d="M 34.22 300 C 31.99 300 30.169999999999998 298.58 29.57 296.36 C 19.25 256.90000000000003 11.760000000000002 195.78000000000003 33.82 128.39000000000001 C 43.74 97.83000000000001 58.71 69.30000000000001 78.34 43.19000000000001 C 79.96000000000001 41.17000000000001 82.99000000000001 40.56000000000001 85.02000000000001 42.180000000000014 C 87.05000000000001 43.80000000000002 87.65 46.83000000000001 86.03000000000002 48.860000000000014 C 67.01000000000002 73.95000000000002 52.44000000000001 101.68 42.920000000000016 131.23000000000002 C 21.670000000000016 196.39000000000001 28.960000000000015 255.69 38.87000000000002 293.94000000000005 C 39.48000000000002 296.57000000000005 38.06000000000002 299.20000000000005 35.43000000000002 299.81000000000006 C 35.03000000000002 300.01000000000005 34.62000000000002 300.01000000000005 34.22000000000002 300.01000000000005 Z" stroke-linecap="round" />
</g>
</g>
</g>
<g transform="matrix(-0.236450125164533 0 0 0.236450125164533 523.2944656559044 875.8659401286318)" id="shape-3168e08e-fffa-4593-97f1-1dd1df221a2d"  >
<g style=""  paint-order="stroke"   >
		<g transform="matrix(1 0 0 1 0 0)" id="decoration-46"  >
<path style="stroke: none; stroke-width: 1; stroke-dasharray: none; stroke-linecap: butt; stroke-dashoffset: 0; stroke-linejoin: miter; stroke-miterlimit: 4; fill: rgb(255,255,255); fill-rule: nonzero; opacity: 1;"  paint-order="stroke"  transform=" translate(-97.16975043130397, -99.99692049799985)" d="M 150.35 196.52 C 106.75 205.16000000000003 18.439999999999998 202.99 3.289999999999992 126.52000000000001 C -7.4 72.62 7.88 19.24 50.26 6.73 C 72.55 0.25 103.56 -9.559999999999999 138.37 21.73 C 169.05 49.519999999999996 192.86 80.73 194.24 123.49000000000001 C 195.42 156 186.47 189.37 150.35 196.52 Z" stroke-linecap="round" />
</g>
</g>
</g>
<g transform="matrix(5.003055444498904 0 0 5.003055444498904 500.3186069936667 500.33669642574654)" id="qrcode-f4ef73d4-7204-4e11-85c2-27e6794c08ca"  >
<g style=""  paint-order="stroke"   >
		<g transform="matrix(1 0 0 1 0 0)" id="qrcode-bg"  >
<rect style="stroke: none; stroke-width: 0; stroke-dasharray: none; stroke-linecap: butt; stroke-dashoffset: 0; stroke-linejoin: miter; stroke-miterlimit: 4; fill: rgb(255,255,255); fill-rule: nonzero; opacity: 1;"  paint-order="stroke"  x="-100" y="-100" rx="0" ry="0" width="200" height="200" />
</g>
		<g transform="matrix(1 0 0 1 0 0)" id="qrcode-code"  >
<g style=""  paint-order="stroke"   >
		<g transform="matrix(5.128205128205129 0 0 5.128205128205129 0 0)"  >
<path style="stroke: rgb(0,0,0); stroke-width: 1; stroke-dasharray: none; stroke-linecap: butt; stroke-dashoffset: 0; stroke-linejoin: miter; stroke-miterlimit: 4; fill: rgb(0,0,0); fill-rule: nonzero; opacity: 1;"  paint-order="stroke"  transform=" translate(-19.5, -19.5)" d="M 1 1.5 L 8 1.5 M 9 1.5 L 10 1.5 M 11 1.5 L 12 1.5 M 13 1.5 L 15 1.5 M 16 1.5 L 19 1.5 M 21 1.5 L 23 1.5 M 24 1.5 L 25 1.5 M 26 1.5 L 28 1.5 M 29 1.5 L 30 1.5 M 31 1.5 L 38 1.5 M 1 2.5 L 2 2.5 M 7 2.5 L 8 2.5 M 9 2.5 L 10 2.5 M 12 2.5 L 14 2.5 M 16 2.5 L 21 2.5 M 23 2.5 L 25 2.5 M 27 2.5 L 30 2.5 M 31 2.5 L 32 2.5 M 37 2.5 L 38 2.5 M 1 3.5 L 2 3.5 M 3 3.5 L 6 3.5 M 7 3.5 L 8 3.5 M 9 3.5 L 10 3.5 M 17 3.5 L 18 3.5 M 19 3.5 L 21 3.5 M 22 3.5 L 23 3.5 M 24 3.5 L 25 3.5 M 27 3.5 L 28 3.5 M 29 3.5 L 30 3.5 M 31 3.5 L 32 3.5 M 33 3.5 L 36 3.5 M 37 3.5 L 38 3.5 M 1 4.5 L 2 4.5 M 3 4.5 L 6 4.5 M 7 4.5 L 8 4.5 M 10 4.5 L 13 4.5 M 14 4.5 L 17 4.5 M 18 4.5 L 19 4.5 M 21 4.5 L 22 4.5 M 23 4.5 L 29 4.5 M 31 4.5 L 32 4.5 M 33 4.5 L 36 4.5 M 37 4.5 L 38 4.5 M 1 5.5 L 2 5.5 M 3 5.5 L 6 5.5 M 7 5.5 L 8 5.5 M 11 5.5 L 13 5.5 M 15 5.5 L 17 5.5 M 20 5.5 L 21 5.5 M 22 5.5 L 23 5.5 M 24 5.5 L 26 5.5 M 31 5.5 L 32 5.5 M 33 5.5 L 36 5.5 M 37 5.5 L 38 5.5 M 1 6.5 L 2 6.5 M 7 6.5 L 8 6.5 M 9 6.5 L 10 6.5 M 11 6.5 L 12 6.5 M 14 6.5 L 17 6.5 M 19 6.5 L 20 6.5 M 22 6.5 L 23 6.5 M 25 6.5 L 26 6.5 M 28 6.5 L 30 6.5 M 31 6.5 L 32 6.5 M 37 6.5 L 38 6.5 M 1 7.5 L 8 7.5 M 9 7.5 L 10 7.5 M 11 7.5 L 12 7.5 M 13 7.5 L 14 7.5 M 15 7.5 L 16 7.5 M 17 7.5 L 18 7.5 M 19 7.5 L 20 7.5 M 21 7.5 L 22 7.5 M 23 7.5 L 24 7.5 M 25 7.5 L 26 7.5 M 27 7.5 L 28 7.5 M 29 7.5 L 30 7.5 M 31 7.5 L 38 7.5 M 9 8.5 L 11 8.5 M 16 8.5 L 18 8.5 M 22 8.5 L 23 8.5 M 24 8.5 L 26 8.5 M 27 8.5 L 28 8.5 M 29 8.5 L 30 8.5 M 3 9.5 L 6 9.5 M 7 9.5 L 8 9.5 M 9 9.5 L 10 9.5 M 13 9.5 L 16 9.5 M 17 9.5 L 21 9.5 M 23 9.5 L 25 9.5 M 26 9.5 L 28 9.5 M 30 9.5 L 33 9.5 M 35 9.5 L 38 9.5 M 3 10.5 L 6 10.5 M 12 10.5 L 14 10.5 M 15 10.5 L 22 10.5 M 23 10.5 L 24 10.5 M 26 10.5 L 27 10.5 M 29 10.5 L 30 10.5 M 32 10.5 L 33 10.5 M 34 10.5 L 35 10.5 M 2 11.5 L 3 11.5 M 6 11.5 L 8 11.5 M 12 11.5 L 13 11.5 M 16 11.5 L 17 11.5 M 18 11.5 L 19 11.5 M 21 11.5 L 22 11.5 M 23 11.5 L 24 11.5 M 25 11.5 L 29 11.5 M 31 11.5 L 33 11.5 M 35 11.5 L 38 11.5 M 2 12.5 L 4 12.5 M 5 12.5 L 6 12.5 M 11 12.5 L 12 12.5 M 13 12.5 L 14 12.5 M 16 12.5 L 17 12.5 M 19 12.5 L 22 12.5 M 24 12.5 L 25 12.5 M 27 12.5 L 28 12.5 M 29 12.5 L 30 12.5 M 31 12.5 L 32 12.5 M 34 12.5 L 35 12.5 M 1 13.5 L 2 13.5 M 3 13.5 L 5 13.5 M 6 13.5 L 8 13.5 M 9 13.5 L 10 13.5 M 15 13.5 L 18 13.5 M 20 13.5 L 22 13.5 M 24 13.5 L 25 13.5 M 26 13.5 L 28 13.5 M 30 13.5 L 32 13.5 M 33 13.5 L 37 13.5 M 1 14.5 L 3 14.5 M 4 14.5 L 7 14.5 M 9 14.5 L 11 14.5 M 12 14.5 L 17 14.5 M 19 14.5 L 21 14.5 M 25 14.5 L 26 14.5 M 27 14.5 L 28 14.5 M 29 14.5 L 31 14.5 M 34 14.5 L 36 14.5 M 2 15.5 L 4 15.5 M 6 15.5 L 8 15.5 M 9 15.5 L 10 15.5 M 13 15.5 L 18 15.5 M 19 15.5 L 20 15.5 M 22 15.5 L 23 15.5 M 24 15.5 L 27 15.5 M 28 15.5 L 30 15.5 M 31 15.5 L 33 15.5 M 34 15.5 L 35 15.5 M 37 15.5 L 38 15.5 M 1 16.5 L 4 16.5 M 5 16.5 L 6 16.5 M 9 16.5 L 11 16.5 M 13 16.5 L 14 16.5 M 16 16.5 L 17 16.5 M 18 16.5 L 25 16.5 M 28 16.5 L 29 16.5 M 30 16.5 L 31 16.5 M 32 16.5 L 34 16.5 M 36 16.5 L 37 16.5 M 1 17.5 L 3 17.5 M 5 17.5 L 9 17.5 M 12 17.5 L 17 17.5 M 18 17.5 L 21 17.5 M 25 17.5 L 28 17.5 M 30 17.5 L 34 17.5 M 35 17.5 L 38 17.5 M 2 18.5 L 4 18.5 M 5 18.5 L 7 18.5 M 8 18.5 L 10 18.5 M 15 18.5 L 16 18.5 M 23 18.5 L 24 18.5 M 25 18.5 L 26 18.5 M 29 18.5 L 31 18.5 M 32 18.5 L 33 18.5 M 35 18.5 L 36 18.5 M 1 19.5 L 4 19.5 M 5 19.5 L 6 19.5 M 7 19.5 L 9 19.5 M 11 19.5 L 16 19.5 M 19 19.5 L 20 19.5 M 21 19.5 L 22 19.5 M 26 19.5 L 27 19.5 M 28 19.5 L 31 19.5 M 33 19.5 L 38 19.5 M 2 20.5 L 3 20.5 M 4 20.5 L 5 20.5 M 9 20.5 L 11 20.5 M 14 20.5 L 18 20.5 M 20 20.5 L 22 20.5 M 23 20.5 L 24 20.5 M 25 20.5 L 26 20.5 M 28 20.5 L 29 20.5 M 30 20.5 L 31 20.5 M 32 20.5 L 34 20.5 M 37 20.5 L 38 20.5 M 3 21.5 L 4 21.5 M 7 21.5 L 8 21.5 M 10 21.5 L 11 21.5 M 14 21.5 L 15 21.5 M 19 21.5 L 21 21.5 M 22 21.5 L 23 21.5 M 24 21.5 L 25 21.5 M 26 21.5 L 29 21.5 M 30 21.5 L 37 21.5 M 1 22.5 L 2 22.5 M 3 22.5 L 4 22.5 M 5 22.5 L 6 22.5 M 8 22.5 L 10 22.5 M 11 22.5 L 13 22.5 M 15 22.5 L 16 22.5 M 18 22.5 L 19 22.5 M 21 22.5 L 25 22.5 M 26 22.5 L 28 22.5 M 32 22.5 L 33 22.5 M 34 22.5 L 35 22.5 M 36 22.5 L 37 22.5 M 3 23.5 L 6 23.5 M 7 23.5 L 8 23.5 M 9 23.5 L 10 23.5 M 12 23.5 L 13 23.5 M 16 23.5 L 17 23.5 M 18 23.5 L 21 23.5 M 22 23.5 L 24 23.5 M 25 23.5 L 26 23.5 M 28 23.5 L 29 23.5 M 35 23.5 L 38 23.5 M 1 24.5 L 3 24.5 M 5 24.5 L 6 24.5 M 9 24.5 L 11 24.5 M 13 24.5 L 15 24.5 M 16 24.5 L 18 24.5 M 19 24.5 L 20 24.5 M 22 24.5 L 25 24.5 M 27 24.5 L 28 24.5 M 30 24.5 L 33 24.5 M 36 24.5 L 37 24.5 M 1 25.5 L 3 25.5 M 4 25.5 L 6 25.5 M 7 25.5 L 8 25.5 M 10 25.5 L 11 25.5 M 13 25.5 L 14 25.5 M 15 25.5 L 17 25.5 M 18 25.5 L 19 25.5 M 20 25.5 L 23 25.5 M 24 25.5 L 28 25.5 M 30 25.5 L 32 25.5 M 33 25.5 L 38 25.5 M 1 26.5 L 3 26.5 M 4 26.5 L 7 26.5 M 11 26.5 L 12 26.5 M 13 26.5 L 14 26.5 M 15 26.5 L 16 26.5 M 19 26.5 L 20 26.5 M 21 26.5 L 22 26.5 M 25 26.5 L 26 26.5 M 29 26.5 L 31 26.5 M 32 26.5 L 33 26.5 M 35 26.5 L 36 26.5 M 1 27.5 L 2 27.5 M 5 27.5 L 8 27.5 M 10 27.5 L 11 27.5 M 12 27.5 L 20 27.5 M 23 27.5 L 24 27.5 M 26 27.5 L 29 27.5 M 31 27.5 L 32 27.5 M 34 27.5 L 36 27.5 M 37 27.5 L 38 27.5 M 1 28.5 L 2 28.5 M 4 28.5 L 5 28.5 M 9 28.5 L 10 28.5 M 11 28.5 L 12 28.5 M 14 28.5 L 16 28.5 M 21 28.5 L 25 28.5 M 27 28.5 L 28 28.5 M 30 28.5 L 31 28.5 M 33 28.5 L 34 28.5 M 36 28.5 L 38 28.5 M 1 29.5 L 2 29.5 M 3 29.5 L 5 29.5 M 7 29.5 L 9 29.5 M 13 29.5 L 15 29.5 M 17 29.5 L 19 29.5 M 21 29.5 L 23 29.5 M 24 29.5 L 25 29.5 M 26 29.5 L 37 29.5 M 9 30.5 L 13 30.5 M 14 30.5 L 15 30.5 M 16 30.5 L 19 30.5 M 23 30.5 L 25 30.5 M 27 30.5 L 30 30.5 M 33 30.5 L 34 30.5 M 36 30.5 L 37 30.5 M 1 31.5 L 8 31.5 M 17 31.5 L 19 31.5 M 20 31.5 L 24 31.5 M 29 31.5 L 30 31.5 M 31 31.5 L 32 31.5 M 33 31.5 L 35 31.5 M 36 31.5 L 38 31.5 M 1 32.5 L 2 32.5 M 7 32.5 L 8 32.5 M 10 32.5 L 12 32.5 M 13 32.5 L 15 32.5 M 16 32.5 L 17 32.5 M 19 32.5 L 25 32.5 M 27 32.5 L 28 32.5 M 29 32.5 L 30 32.5 M 33 32.5 L 34 32.5 M 36 32.5 L 37 32.5 M 1 33.5 L 2 33.5 M 3 33.5 L 6 33.5 M 7 33.5 L 8 33.5 M 9 33.5 L 10 33.5 M 11 33.5 L 13 33.5 M 14 33.5 L 15 33.5 M 16 33.5 L 19 33.5 M 20 33.5 L 21 33.5 M 24 33.5 L 34 33.5 M 35 33.5 L 38 33.5 M 1 34.5 L 2 34.5 M 3 34.5 L 6 34.5 M 7 34.5 L 8 34.5 M 9 34.5 L 11 34.5 M 16 34.5 L 17 34.5 M 20 34.5 L 21 34.5 M 24 34.5 L 26 34.5 M 29 34.5 L 30 34.5 M 31 34.5 L 32 34.5 M 33 34.5 L 36 34.5 M 1 35.5 L 2 35.5 M 3 35.5 L 6 35.5 M 7 35.5 L 8 35.5 M 9 35.5 L 10 35.5 M 12 35.5 L 13 35.5 M 14 35.5 L 16 35.5 M 17 35.5 L 18 35.5 M 21 35.5 L 23 35.5 M 25 35.5 L 27 35.5 M 28 35.5 L 31 35.5 M 32 35.5 L 33 35.5 M 37 35.5 L 38 35.5 M 1 36.5 L 2 36.5 M 7 36.5 L 8 36.5 M 11 36.5 L 12 36.5 M 13 36.5 L 20 36.5 M 21 36.5 L 23 36.5 M 28 36.5 L 34 36.5 M 37 36.5 L 38 36.5 M 1 37.5 L 8 37.5 M 10 37.5 L 11 37.5 M 12 37.5 L 14 37.5 M 18 37.5 L 20 37.5 M 24 37.5 L 28 37.5 M 31 37.5 L 38 37.5" stroke-linecap="round" />
</g>
</g>
</g>
</g>
</g>
</svg>