<svg id="svg" xmlns="http://www.w3.org/2000/svg" xmlns:xlink="http://www.w3.org/1999/xlink" width="400" height="400" viewBox="0, 0, 400,400"><g id="svgg"><path id="path0" d="M163.750 1.227 C 83.912 9.612,27.224 41.548,7.437 89.288 C -1.481 110.804,-2.398 134.856,4.499 166.366 C 9.763 190.418,9.642 186.634,7.819 270.488 C 7.455 287.258,7.602 297.388,8.296 303.363 C 16.512 374.032,75.889 401.554,216.232 399.747 C 302.682 398.633,352.474 386.795,379.480 360.934 C 402.136 339.238,405.236 314.836,392.620 257.500 C 385.389 224.635,385.104 214.834,390.308 177.917 C 396.830 131.649,396.854 108.417,390.404 86.255 C 376.284 37.738,329.850 10.525,246.667 2.016 C 228.689 0.177,178.314 -0.302,163.750 1.227 " stroke="none" fill="#000000" fill-rule="evenodd"></path></g></svg>